<?xml version="1.0" encoding="utf-8"?>
<!-- Generator: Adobe Illustrator 27.1.1, SVG Export Plug-In . SVG Version: 6.00 Build 0)  -->
<svg version="1.1" xmlns="http://www.w3.org/2000/svg" xmlns:xlink="http://www.w3.org/1999/xlink" x="0px" y="0px"
	 viewBox="0 0 220 226" style="enable-background:new 0 0 220 226;" xml:space="preserve">
<style type="text/css">
	.st0{fill:#F3A1C6;}
	.st1{fill:#ED6CA5;}
	.st2{fill:#87365A;}
	.st3{fill:#D5D909;}
</style>
<g id="Lager_4">
	<g>
		
			<ellipse transform="matrix(0.6715 -0.741 0.741 0.6715 -17.4526 99.6731)" class="st0" cx="103.69" cy="69.52" rx="51.25" ry="52.31"/>
		
			<ellipse transform="matrix(0.6715 -0.741 0.741 0.6715 -55.7514 83.1842)" class="st0" cx="65.95" cy="104.47" rx="51.25" ry="52.31"/>
		
			<ellipse transform="matrix(0.6715 -0.741 0.741 0.6715 -74.4327 125.5101)" class="st0" cx="104.34" cy="146.71" rx="51.25" ry="52.31"/>
		
			<ellipse transform="matrix(0.6715 -0.741 0.741 0.6715 -32.0357 143.8326)" class="st0" cx="146.21" cy="108.05" rx="51.25" ry="52.31"/>
	</g>
</g>
<g id="Lager_1">
	<g>
		<circle class="st1" cx="80.22" cy="86.69" r="46.5"/>
		<circle class="st1" cx="76.22" cy="133.19" r="46.5"/>
		<circle class="st1" cx="126.72" cy="138.19" r="46.5"/>
		<circle class="st1" cx="131.22" cy="86.69" r="46.5"/>
	</g>
</g>
<g id="Lager_2">
	<circle class="st2" cx="105.31" cy="79.6" r="39.41"/>
	<circle class="st2" cx="120.85" cy="84.82" r="1.88"/>
	<circle class="st2" cx="73.13" cy="108.19" r="39.41"/>
	<circle class="st2" cx="105.31" cy="138.19" r="39.41"/>
	<circle class="st2" cx="131.22" cy="108.19" r="39.41"/>
</g>
<g id="Lager_3">
	<circle class="st3" cx="105.38" cy="105.35" r="25.75"/>
</g>
</svg>
