<?xml version="1.0" encoding="utf-8"?>
<!-- Generator: Adobe Illustrator 27.1.1, SVG Export Plug-In . SVG Version: 6.00 Build 0)  -->
<svg version="1.1" id="Lager_1" xmlns="http://www.w3.org/2000/svg" xmlns:xlink="http://www.w3.org/1999/xlink" x="0px" y="0px"
	 viewBox="0 0 595.28 142" style="enable-background:new 0 0 595.28 142;" xml:space="preserve">
<style type="text/css">
	.st0{fill:none;stroke:#000000;stroke-miterlimit:10;}
</style>
<g>
	<path class="st0" d="M70.41,100.9H29.15V84.64h7.13v-35.4H28.9V32.98H95.8v22.36H77.73v-6.1H62.55v10.45h11.72v13.82H62.55v11.13
		h7.86V100.9z"/>
	<path class="st0" d="M165.53,100.9h-64.65V84.64h6.1v-35.4h-6.1V32.98h38.82v16.26h-6.45v35.4h16.06V73.75h16.21V100.9z"/>
	<path class="st0" d="M172.12,66.77c0-5.66,1.38-11.15,4.15-16.46c2.73-5.27,6.98-9.72,12.74-13.33c2.05-1.27,4.16-2.28,6.32-3.03
		c2.16-0.75,4.52-1.33,7.06-1.73c2.54-0.41,5.21-0.61,8.01-0.61c12.17,0,21.6,3.56,28.27,10.69c3.32,3.52,5.83,7.32,7.52,11.43
		c1.69,4.1,2.54,8.45,2.54,13.04c0,9.47-3.45,17.71-10.35,24.71c-6.9,7-16.23,10.5-27.98,10.5c-11.36,0-20.57-3.29-27.64-9.86
		C175.67,85.57,172.12,77.12,172.12,66.77z M201.61,66.77c0,7.55,0.73,12.65,2.2,15.28c1.4,2.67,3.6,4,6.59,4
		c2.96,0,5.18-1.29,6.64-3.86c1.46-2.6,2.2-7.75,2.2-15.43c0-7.45-0.72-12.53-2.15-15.23c-1.4-2.67-3.63-4-6.69-4
		c-2.93,0-5.13,1.29-6.59,3.86C202.34,53.96,201.61,59.09,201.61,66.77z"/>
	<path class="st0" d="M296.19,101.48H274.8l-19.14-52.25h-4.69V32.98h35.21v16.26h-5.08l8.01,29.25l10.16-29.25h-5.03V32.98h29.59
		v16.26h-5.03l10.3,29.25l8.11-29.25h-4.88V32.98h27.39v16.26h-4.69l-19.34,52.25H314.6l-9.18-26.17L296.19,101.48z"/>
	<path class="st0" d="M429.88,100.9h-64.79V84.64h5.27v-35.4h-5.37V32.98h64.89v21.73h-17.82v-5.47h-15.43v10.45h13.43v13.82h-13.43
		v11.13h15.43v-5.47h17.82V100.9z"/>
	<path class="st0" d="M476.85,100.9h-36.91V84.64h5.52v-35.4h-5.52V32.98h36.91c3.32,0,6.4,0.06,9.23,0.17
		c2.83,0.11,5.26,0.28,7.28,0.49c2.02,0.21,3.87,0.5,5.57,0.85c4.75,1.01,8.61,3.21,11.57,6.59c2.99,3.45,4.49,7.52,4.49,12.21
		c0,3.52-0.91,6.71-2.73,9.57c-1.82,2.83-4.22,4.92-7.18,6.25l9.38,15.53h4.88v16.26h-24.46l-14.79-27.73h-8.35v11.47h5.13V100.9z
		 M471.73,47.87v12.94h2.93c3.84,0,6.45-0.11,7.81-0.34c1.46-0.23,2.7-0.88,3.71-1.95c1.01-1.01,1.51-2.39,1.51-4.15
		s-0.5-3.16-1.51-4.2c-1.01-1.07-2.29-1.73-3.86-1.95c-1.5-0.23-4.23-0.34-8.2-0.34H471.73z"/>
	<path class="st0" d="M540.77,100.9h-15.28V79.12h15.28c1.82,5.92,5.26,8.89,10.3,8.89c3.65,0,5.47-1.46,5.47-4.39
		c0-1.53-0.63-2.8-1.9-3.81c-1.37-1.11-4.25-2.64-8.64-4.59c-5.53-2.51-9.6-4.67-12.21-6.49c-2.44-1.66-4.53-3.96-6.25-6.88
		c-1.73-2.9-2.59-6.1-2.59-9.62c0-6.31,2.05-11.25,6.15-14.79c4.07-3.55,9.08-5.32,15.04-5.32s11,1.69,15.14,5.08v-4.2h15.38v19.34
		h-15.19c-1.86-5.34-5.14-8.01-9.86-8.01c-3.32,0-4.98,1.42-4.98,4.25c0,1.37,0.47,2.39,1.42,3.08c0.91,0.72,3.86,2.29,8.84,4.74
		c6.67,3.32,11.13,5.75,13.38,7.28c1.14,0.75,2.3,1.8,3.49,3.15c1.19,1.35,2.17,2.74,2.95,4.17c1.79,3.19,2.69,6.64,2.69,10.35
		c0,5.7-2.12,10.51-6.35,14.45c-4.23,4-9.57,6.01-16.02,6.01c-5.99,0-11.41-1.77-16.26-5.32V100.9z"/>
</g>
</svg>
