<?xml version="1.0" encoding="utf-8"?>
<!-- Generator: Adobe Illustrator 27.1.1, SVG Export Plug-In . SVG Version: 6.00 Build 0)  -->
<svg version="1.1" xmlns="http://www.w3.org/2000/svg" xmlns:xlink="http://www.w3.org/1999/xlink" x="0px" y="0px"
	 viewBox="0 0 207 202" style="enable-background:new 0 0 207 202;" xml:space="preserve">
<style type="text/css">
	.st4{fill:#E7D761;}
	.st5{fill:#E5DDAA;}
	.st6{fill:#ABA980;}
</style>
<g id="Lager_1">
	
		<ellipse transform="matrix(0.7071 -0.7071 0.7071 0.7071 -43.8725 103.9148)" class="st4" cx="103.5" cy="104.92" rx="15.5" ry="85.5"/>
	
		<ellipse transform="matrix(0.9722 -0.234 0.234 0.9722 -21.5325 28.3311)" class="st4" cx="108.64" cy="104.92" rx="15.5" ry="85.5"/>
	<ellipse transform="matrix(0.5 -0.866 0.866 0.5 -46.4575 146.3337)" class="st4" cx="103.5" cy="113.4" rx="15.5" ry="85.5"/>
	
		<ellipse transform="matrix(0.1836 -0.983 0.983 0.1836 -14.4373 192.4498)" class="st4" cx="108.64" cy="104.92" rx="85.5" ry="15.5"/>
	<ellipse transform="matrix(0.5 -0.866 0.866 0.5 -40.6893 146.3337)" class="st4" cx="106.38" cy="108.4" rx="85.5" ry="15.5"/>
	
		<ellipse transform="matrix(0.7071 -0.7071 0.7071 0.7071 -41.9142 109.6958)" class="st4" cx="111.46" cy="105.44" rx="85.5" ry="15.5"/>
	
		<ellipse transform="matrix(0.1836 -0.983 0.983 0.1836 -31.2859 195.0642)" class="st4" cx="101.79" cy="116.37" rx="15.5" ry="85.5"/>
	<ellipse transform="matrix(0.866 -0.5 0.5 0.866 -37.4334 69.2396)" class="st4" cx="110.49" cy="104.47" rx="85.5" ry="15.5"/>
	
		<ellipse transform="matrix(0.9919 -0.1271 0.1271 0.9919 -14.0712 14.7857)" class="st4" cx="108.86" cy="117.69" rx="85.5" ry="15.5"/>
	<ellipse transform="matrix(0.866 -0.5 0.5 0.866 -42.4368 76.9977)" class="st4" cx="122.46" cy="117.69" rx="85.5" ry="15.5"/>
	<ellipse transform="matrix(0.866 -0.5 0.5 0.866 -37.2812 68.3269)" class="st4" cx="108.86" cy="103.73" rx="15.5" ry="85.5"/>
</g>
<g id="Lager_2">
	
		<ellipse transform="matrix(0.6386 -0.7695 0.7695 0.6386 -41.6104 119.2642)" class="st5" cx="106.17" cy="103.93" rx="62.08" ry="10.7"/>
	
		<ellipse transform="matrix(0.9402 -0.3405 0.3405 0.9402 -30.2838 42.6586)" class="st5" cx="106.38" cy="107.6" rx="60.76" ry="10.93"/>
	
		<ellipse transform="matrix(0.4307 -0.9025 0.9025 0.4307 -37.3054 150.014)" class="st5" cx="100.25" cy="104.58" rx="62.16" ry="10.68"/>
	
		<ellipse transform="matrix(0.0798 -0.9968 0.9968 0.0798 -9.3649 205.0588)" class="st5" cx="106.38" cy="107.6" rx="11.17" ry="59.48"/>
	
		<ellipse transform="matrix(0.4223 -0.9064 0.9064 0.4223 -36.32 155.5239)" class="st5" cx="103.86" cy="106.26" rx="11.27" ry="58.94"/>
	
		<ellipse transform="matrix(0.6542 -0.7563 0.7563 0.6542 -46.2332 118.1933)" class="st5" cx="106.13" cy="109.65" rx="11.25" ry="59.03"/>
	
		<ellipse transform="matrix(0.1225 -0.9925 0.9925 0.1225 -16.6998 188.2705)" class="st5" cx="98.11" cy="103.58" rx="61.66" ry="10.77"/>
	
		<ellipse transform="matrix(0.8345 -0.5511 0.5511 0.8345 -42.3302 76.8656)" class="st5" cx="106.77" cy="108.89" rx="11.16" ry="59.53"/>
	
		<ellipse transform="matrix(0.9835 -0.1807 0.1807 0.9835 -18.0433 19.4066)" class="st5" cx="97.48" cy="108.73" rx="10.93" ry="60.75"/>
	
		<ellipse transform="matrix(0.8345 -0.5511 0.5511 0.8345 -49.0384 73.6396)" class="st5" cx="98.05" cy="118.44" rx="11.16" ry="59.53"/>
	
		<ellipse transform="matrix(0.8091 -0.5877 0.5877 0.8091 -42.8081 83.5764)" class="st5" cx="107.22" cy="107.67" rx="61.6" ry="10.78"/>
</g>
<g id="Lager_3">
	<circle class="st6" cx="109.14" cy="104.63" r="20.25"/>
</g>
</svg>
